<?xml version="1.0" encoding="UTF-8"?>
<svg width="22px" height="22px" viewBox="0 0 22 22" version="1.1" xmlns="http://www.w3.org/2000/svg" xmlns:xlink="http://www.w3.org/1999/xlink">
    <!-- Generator: Sketch 50.2 (55047) - http://www.bohemiancoding.com/sketch -->
    <title>insta_hover</title>
    <desc>Created with Sketch.</desc>
    <defs></defs>
    <g id="Page-1" stroke="none" stroke-width="1" fill="none" fill-rule="evenodd">
        <g id="insta_hover" transform="translate(1.000000, 1.000000)" fill-rule="nonzero">
            <circle id="Oval-1-Copy-2" stroke="#FF5B6D" stroke-width="0.5" fill="#FF5B6D" cx="10" cy="10" r="10"></circle>
            <path d="M10.0000096,5.14285714 C11.3191208,5.14285714 11.4845279,5.14844848 12.0025938,5.17208632 C12.51958,5.19566632 12.8726631,5.27778179 13.1816131,5.39786049 C13.5010132,5.52196881 13.7718844,5.68805068 14.0419265,5.95807351 C14.3119493,6.22811562 14.4780312,6.49898678 14.6021588,6.81838687 C14.7222182,7.12733694 14.8043337,7.48041999 14.8279137,7.99740621 C14.8515515,8.51547214 14.8571429,8.6808792 14.8571429,10.0000096 C14.8571429,11.3191208 14.8515515,11.4845279 14.8279137,12.0025938 C14.8043337,12.51958 14.7222182,12.8726631 14.6021588,13.1816131 C14.4780312,13.5010132 14.3119493,13.7718844 14.0419265,14.0419265 C13.7718844,14.3119493 13.5010132,14.4780312 13.1816131,14.6021588 C12.8726631,14.7222182 12.51958,14.8043337 12.0025938,14.8279137 C11.4845279,14.8515515 11.3191208,14.8571429 10.0000096,14.8571429 C8.6808792,14.8571429 8.51547214,14.8515515 7.99740621,14.8279137 C7.48041999,14.8043337 7.12733694,14.7222182 6.81838687,14.6021588 C6.49898678,14.4780312 6.22811562,14.3119493 5.95807351,14.0419265 C5.68805068,13.7718844 5.52196881,13.5010132 5.39786049,13.1816131 C5.27778179,12.8726631 5.19566632,12.51958 5.17208632,12.0025938 C5.14844848,11.4845279 5.14285714,11.3191208 5.14285714,10.0000096 C5.14285714,8.6808792 5.14844848,8.51547214 5.17208632,7.99740621 C5.19566632,7.48041999 5.27778179,7.12733694 5.39786049,6.81838687 C5.52196881,6.49898678 5.68805068,6.22811562 5.95807351,5.95807351 C6.22811562,5.68805068 6.49898678,5.52196881 6.81838687,5.39786049 C7.12733694,5.27778179 7.48041999,5.19566632 7.99740621,5.17208632 C8.51547214,5.14844848 8.6808792,5.14285714 10.0000096,5.14285714 Z M10.0000096,6.01801645 C8.70309029,6.01801645 8.54946359,6.02297153 8.03729748,6.04633945 C7.56373085,6.06793356 7.30654881,6.14706057 7.13539617,6.21357815 C6.90867726,6.30168985 6.74687564,6.40694187 6.5769184,6.5769184 C6.40694187,6.74687564 6.30168985,6.90867726 6.21357815,7.13539617 C6.14706057,7.30654881 6.06793356,7.56373085 6.04633945,8.03729748 C6.02297153,8.54946359 6.01801645,8.70309029 6.01801645,10.0000096 C6.01801645,11.2969097 6.02297153,11.4505364 6.04633945,11.9627025 C6.06793356,12.4362692 6.14706057,12.6934512 6.21357815,12.8646038 C6.30168985,13.0913227 6.40696115,13.2531244 6.5769184,13.4230816 C6.74687564,13.5930581 6.90867726,13.6983102 7.13539617,13.7864219 C7.30654881,13.8529394 7.56373085,13.9320664 8.03729748,13.9536606 C8.54940575,13.9770285 8.70299389,13.9819835 10.0000096,13.9819835 C11.2970061,13.9819835 11.4506135,13.9770285 11.9627025,13.9536606 C12.4362692,13.9320664 12.6934512,13.8529394 12.8646038,13.7864219 C13.0913227,13.6983102 13.2531244,13.5930581 13.4230816,13.4230816 C13.5930581,13.2531244 13.6983102,13.0913227 13.7864219,12.8646038 C13.8529394,12.6934512 13.9320664,12.4362692 13.9536606,11.9627025 C13.9770285,11.4505364 13.9819835,11.2969097 13.9819835,10.0000096 C13.9819835,8.70309029 13.9770285,8.54946359 13.9536606,8.03729748 C13.9320664,7.56373085 13.8529394,7.30654881 13.7864219,7.13539617 C13.6983102,6.90867726 13.5930581,6.74687564 13.4230816,6.5769184 C13.2531244,6.40694187 13.0913227,6.30168985 12.8646038,6.21357815 C12.6934512,6.14706057 12.4362692,6.06793356 11.9627025,6.04633945 C11.4505364,6.02297153 11.2969097,6.01801645 10.0000096,6.01801645 Z M10.0000096,7.50579307 C11.3775213,7.50579307 12.4942069,8.62247869 12.4942069,10.0000096 C12.4942069,11.3775213 11.3775213,12.4942069 10.0000096,12.4942069 C8.62247869,12.4942069 7.50579307,11.3775213 7.50579307,10.0000096 C7.50579307,8.62247869 8.62247869,7.50579307 10.0000096,7.50579307 Z M10.0000096,11.6190476 C10.8941795,11.6190476 11.6190476,10.8941795 11.6190476,10.0000096 C11.6190476,9.10582052 10.8941795,8.38095238 10.0000096,8.38095238 C9.10582052,8.38095238 8.38095238,9.10582052 8.38095238,10.0000096 C8.38095238,10.8941795 9.10582052,11.6190476 10.0000096,11.6190476 Z M13.1756169,7.40725064 C13.1756169,7.72915719 12.9146559,7.99009892 12.5927494,7.99009892 C12.2708621,7.99009892 12.0099011,7.72915719 12.0099011,7.40725064 C12.0099011,7.0853441 12.2708621,6.82438309 12.5927494,6.82438309 C12.9146559,6.82438309 13.1756169,7.0853441 13.1756169,7.40725064 Z" id="Instagram" fill="#FFFFFF"></path>
        </g>
    </g>
</svg>