<?xml version="1.0" encoding="UTF-8"?>
<svg width="22px" height="22px" viewBox="0 0 22 22" version="1.1" xmlns="http://www.w3.org/2000/svg" xmlns:xlink="http://www.w3.org/1999/xlink">
    <!-- Generator: Sketch 48.2 (47327) - http://www.bohemiancoding.com/sketch -->
    <title>Twitter</title>
    <desc>Created with Sketch.</desc>
    <defs></defs>
    <g id="Desktop-HD" stroke="none" stroke-width="1" fill="none" fill-rule="evenodd" transform="translate(-1241.000000, -39.000000)">
        <g id="NAV/HERO" transform="translate(83.000000, 40.000000)">
            <g id="SOCIAL-ICON" transform="translate(1159.000000, 0.000000)">
                <g id="SOCIAL">
                    <g id="Twitter">
                        <circle id="Oval-1" stroke="#FFFFFF" stroke-width="0.5" cx="10" cy="10" r="10"></circle>
                        <path d="M14.5806095,6.17518095 C14.2983556,6.3559746 13.6503048,6.61869206 13.3307048,6.61869206 L13.3307048,6.61923175 C12.9657714,6.238 12.4519937,6 11.8821968,6 C10.7755238,6 9.87813968,6.89738413 9.87813968,8.0036254 C9.87813968,8.15732698 9.89594921,8.30725079 9.92886984,8.45102222 L9.92854603,8.45102222 C8.42736508,8.4116254 6.78554286,7.6592 5.79716825,6.37140952 C5.18948571,7.42325079 5.71535238,8.59306667 6.40495873,9.01930794 C6.16890159,9.03711746 5.73434921,8.99210794 5.52980952,8.79253333 C5.51610159,9.49066667 5.85178413,10.4156825 7.07578413,10.7512571 C6.84005079,10.8780825 6.42276825,10.8417079 6.24132698,10.8147238 C6.30500952,11.4040571 7.13029206,12.1745079 8.03274921,12.1745079 C7.71109841,12.5465651 6.50091429,13.2213841 5.14285714,13.0066984 C6.0651746,13.5678603 7.14011429,13.8928571 8.27787302,13.8928571 C11.5111111,13.8928571 14.0220381,11.2724825 13.8869016,8.03989206 C13.8863619,8.03633016 13.8863619,8.03276825 13.8860381,8.02888254 C13.8863619,8.02057143 13.8869016,8.01226032 13.8869016,8.0036254 C13.8869016,7.9935873 13.8860381,7.98408889 13.8857143,7.9743746 C14.1800571,7.77307302 14.5749968,7.41699048 14.8571429,6.94833016 C14.6935111,7.03845714 14.2026159,7.21892698 13.7458286,7.26372063 C14.0389841,7.10548571 14.4733206,6.58728254 14.5806095,6.17518095" id="Fill-1" fill="#FFFFFF"></path>
                    </g>
                </g>
            </g>
        </g>
    </g>
</svg>