<?xml version="1.0" encoding="utf-8"?>
<!-- Generator: Adobe Illustrator 22.0.1, SVG Export Plug-In . SVG Version: 6.00 Build 0)  -->
<svg version="1.1" id="Calque_1" xmlns="http://www.w3.org/2000/svg" xmlns:xlink="http://www.w3.org/1999/xlink" x="0px" y="0px"
	 viewBox="0 0 22 22" style="enable-background:new 0 0 22 22;" xml:space="preserve">
<style type="text/css">
	.st0{fill:none;stroke:#FFFFFF;stroke-width:0.5;}
	.st1{fill:#FFFFFF;}
</style>
<title>Twitter</title>
<desc>Created with Sketch.</desc>
<g id="Desktop-HD" transform="translate(-1241.000000, -39.000000)">
	<g id="NAV_x2F_HERO" transform="translate(83.000000, 40.000000)">
		<g id="SOCIAL-ICON" transform="translate(1159.000000, 0.000000)">
			<g id="SOCIAL">
				<g id="youtube">
					<circle id="Oval-1" class="st0" cx="10" cy="10" r="10"/>
					<g>
						<path class="st1" d="M10.3,14C10.3,14,10.3,14,10.3,14c-1.3,0-2.7,0-4.1-0.1c-0.9,0-1.5-0.7-1.6-1.6c-0.2-1.5-0.2-3.1,0-4.6
							C4.6,6.8,5.3,6.1,6.1,6c2.5-0.2,5.1-0.2,7.7,0c0.9,0.1,1.5,0.7,1.6,1.6c0.2,1.5,0.2,3,0,4.6c-0.1,0.9-0.7,1.6-1.6,1.6
							C12.8,13.9,11.5,14,10.3,14z M8.9,8.4v3l2.8-1.5L8.9,8.4z"/>
					</g>
				</g>
			</g>
		</g>
	</g>
</g>
</svg>
