<?xml version="1.0" encoding="UTF-8"?>
<svg width="22px" height="22px" viewBox="0 0 22 22" version="1.1" xmlns="http://www.w3.org/2000/svg" xmlns:xlink="http://www.w3.org/1999/xlink">
    <!-- Generator: Sketch 50.2 (55047) - http://www.bohemiancoding.com/sketch -->
    <title>youtube_hover</title>
    <desc>Created with Sketch.</desc>
    <defs></defs>
    <g id="Page-1" stroke="none" stroke-width="1" fill="none" fill-rule="evenodd">
        <g id="youtube_hover" transform="translate(1.000000, 1.000000)" fill-rule="nonzero">
            <circle id="Oval-1" stroke="#FF5B6D" stroke-width="0.5" fill="#FF5B6D" cx="10" cy="10" r="10"></circle>
            <path d="M10.3,14 C9,14 7.6,14 6.2,13.9 C5.3,13.9 4.7,13.2 4.6,12.3 C4.4,10.8 4.4,9.2 4.6,7.7 C4.6,6.8 5.3,6.1 6.1,6 C8.6,5.8 11.2,5.8 13.8,6 C14.7,6.1 15.3,6.7 15.4,7.6 C15.6,9.1 15.6,10.6 15.4,12.2 C15.3,13.1 14.7,13.8 13.8,13.8 C12.8,13.9 11.5,14 10.3,14 Z M8.9,8.4 L8.9,11.4 L11.7,9.9 L8.9,8.4 Z" id="Shape" fill="#FFFFFF"></path>
        </g>
    </g>
</svg>