<?xml version="1.0" encoding="UTF-8"?>
<svg width="278px" height="156px" viewBox="0 0 278 156" version="1.1" xmlns="http://www.w3.org/2000/svg" xmlns:xlink="http://www.w3.org/1999/xlink">
    <!-- Generator: Sketch 51.2 (57519) - http://www.bohemiancoding.com/sketch -->
    <title>Page 1</title>
    <desc>Created with Sketch.</desc>
    <defs>
        <polygon id="path-1" points="0 0.333552713 107.357141 0.333552713 107.357141 134.086986 0 134.086986"></polygon>
        <polygon id="path-3" points="0.389671115 0.486320566 13.9809973 0.486320566 13.9809973 17.5024355 0.389671115 17.5024355"></polygon>
    </defs>
    <g id="Page-1" stroke="none" stroke-width="1" fill="none" fill-rule="evenodd">
        <g id="24---BLUA-PREZ" transform="translate(-243.000000, -463.000000)">
            <g id="Group-5" transform="translate(123.000000, 394.000000)">
                <g id="Group">
                    <g id="Group-4">
                        <g id="Group-8">
                            <g id="Page-1" transform="translate(120.833008, 69.148339)">
                                <g id="Group-3" transform="translate(0.000000, 21.076160)">
                                    <mask id="mask-2" fill="white">
                                        <use xlink:href="#path-1"></use>
                                    </mask>
                                    <g id="Clip-2"></g>
                                    <path d="M59.5131225,133.892662 C103.006236,137.295885 105.724556,95.0959198 91.4533779,78.0798048 C77.1624921,61.0398673 101.647076,60.3830452 107.083716,28.3927491 C111.954944,-0.271917517 50.6785838,-20.613662 7.86505003,37.9217735 C-16.3979912,71.0943493 21.2806369,58.3880759 42.523625,39.2830627 C75.8230402,9.33470035 93.4921176,33.8379059 71.7455608,51.5346655 C56.3415231,64.070097 62.911022,77.3991602 70.386401,81.4830278 C81.8624667,87.7524452 83.8801395,108.045864 65.6293416,111.43139 C47.2806843,114.834613 48.6398441,73.9959372 49.9990039,58.3411114 C50.4733507,52.874174 36.4074059,52.2153101 33.0095064,58.3411114 C29.6116069,64.4669128 16.0200088,130.489439 59.5131225,133.892662" id="Fill-1" fill="#FFFFFF" mask="url(#mask-2)"></path>
                                </g>
                                <path d="M12.6221093,99.8366094 C6.73083117,102.459133 17.6890571,115.178339 24.1002139,111.09379 C28.1138128,108.536609 56.1994909,81.3012957 48.6398441,77.3753376 C30.2911868,67.8463133 30.9707667,91.6688742 12.6221093,99.8366094" id="Fill-4" fill="#FFFFFF"></path>
                                <path d="M147.008418,108.004345 C143.697163,119.760951 142.603786,146.054159 156.433909,151.918853 C170.264032,157.783548 173.423407,150.557564 181.578365,151.918853 C186.983064,152.820708 196.266805,157.165262 199.247443,152.926888 C203.324922,147.128477 193.053072,149.863307 192.451644,139.313996 C191.772064,127.389783 191.662652,115.2219 192.451644,107.3237 C193.131224,100.517254 177.500886,93.0301634 177.500886,108.004345 C177.500886,130.164771 179.539626,138.305961 169.345927,138.305961 C155.585114,138.305961 163.365624,108.276602 163.909288,105.281766 C165.268448,97.7946756 150.319674,96.2477386 147.008418,108.004345 Z" id="Fill-6" fill="#FFFFFF"></path>
                                <path d="M249.795495,138.408671 C247.077175,128.199002 245.522296,126.103297 246.397595,118.213945 C247.077175,112.088144 232.126417,103.049184 232.126417,108.004277 C232.126417,114.810722 236.479398,144.303053 221.932719,141.355862 C207.38604,138.408671 212.4186,98.4752521 237.563057,112.088144 C251.312997,119.532354 258.778862,101.845124 252.513815,99.1558967 C233.485577,90.9881615 222.612299,93.0300953 212.4186,98.4752521 C195.237461,107.652383 196.108683,143.853828 211.73902,151.340918 C227.369358,158.828009 231.446838,152.021563 236.883477,151.340918 C242.320116,150.660274 251.774974,155.746821 256.532034,153.704887 C264.062049,147.778899 252.513815,148.61834 249.795495,138.408671 Z" id="Fill-8" fill="#FFFFFF"></path>
                                <polygon id="Rectangle" fill="#FFFFFF" points="231.938583 104.84583 244.404338 104.84583 244.925286 115.95458 232.16652 109.85049"></polygon>
                                <g id="Group-12" transform="translate(262.997422, 137.466386)">
                                    <mask id="mask-4" fill="white">
                                        <use xlink:href="#path-3"></use>
                                    </mask>
                                    <g id="Clip-11"></g>
                                    <path d="M7.18547013,17.5024355 C1.74883092,17.5024355 0.389671115,14.454509 0.389671115,10.6959895 C0.389671115,6.93747007 3.43215033,0.486320566 7.18547013,0.486320566 C10.9387899,0.486320566 13.9812691,6.93747007 13.9812691,10.6959895 C13.9812691,14.454509 13.3016892,17.5024355 7.18547013,17.5024355" id="Fill-10" fill="#FFFFFF" mask="url(#mask-4)"></path>
                                </g>
                                <path d="M122.714053,154.968822 C127.514606,154.759183 142.807872,60.3422066 143.10145,58.3172889 C154.654309,-21.3181291 126.791533,-0.898791192 120.675314,13.3947454 C116.514925,23.1170728 107.083716,155.649466 122.714053,154.968822" id="Fill-13" fill="#FFFFFF"></path>
                            </g>
                        </g>
                    </g>
                </g>
            </g>
        </g>
    </g>
</svg>