<?xml version="1.0" encoding="utf-8"?>
<!-- Generator: Adobe Illustrator 22.0.1, SVG Export Plug-In . SVG Version: 6.00 Build 0)  -->
<svg version="1.1" id="Calque_1" xmlns="http://www.w3.org/2000/svg" xmlns:xlink="http://www.w3.org/1999/xlink" x="0px" y="0px"
	 viewBox="0 0 332 320" style="enable-background:new 0 0 332 320;" xml:space="preserve">
<style type="text/css">
	.st0{opacity:4.000000e-02;fill:#262626;enable-background:new    ;}
	.st1{fill:url(#Oval-6-Copy-3_1_);}
	.st2{fill:url(#Oval-6-Copy-4_1_);}
	.st3{fill:url(#Oval-6-Copy_2_);}
	.st4{fill:#5A33AD;fill-opacity:0.3;}
	.st5{fill:#FF304A;}
	.st6{fill:#292929;}
	.st7{fill:#FFFFFF;}
	.st8{fill:url(#Oval-6-Copy-5_1_);}
	.st9{fill:url(#Oval-6-Copy-6_1_);}
</style>
<title>Group 4</title>
<desc>Created with Sketch.</desc>
<g id="Desktop-HD" transform="translate(-905.000000, -167.000000)">
	<g id="NAV_x2F_HERO" transform="translate(83.000000, 40.000000)">
		<g id="Group-4" transform="translate(817.000000, 128.000000)">
			<g id="Group-3">
				<ellipse id="Oval" class="st0" cx="175.4" cy="305.5" rx="135.2" ry="13.5"/>
				
					<g id="Group-10" transform="translate(170.000000, 136.714286) rotate(90.000000) translate(-170.000000, -136.714286) translate(33.038869, -32.979323)">
					
						<g id="Group-2" transform="translate(124.045936, 312.816723) rotate(280.000000) translate(-124.045936, -312.816723) translate(102.120141, 285.533828)">
						
							<linearGradient id="Oval-6-Copy-3_1_" gradientUnits="userSpaceOnUse" x1="-426.0945" y1="47.3223" x2="-426.2938" y2="48.9083" gradientTransform="matrix(22.5279 -3.106416e-05 -3.682531e-05 22.1861 9609.417 -1056.7777)">
							<stop  offset="0" style="stop-color:#4F3CEB"/>
							<stop  offset="1" style="stop-color:#7945B7"/>
						</linearGradient>
						<path id="Oval-6-Copy-3" class="st1" d="M11.3,22.2c6.2,0,11.3-5,11.3-11.1S17.5,0,11.3,0C5.4,0,0.7,4.4,0.1,10
							C0,10.9,0,11.5,0,11.9c0.1,0.6,0.2,1.4,0.3,1.6C1.4,18.4,5.9,22.2,11.3,22.2z"/>
						
							<linearGradient id="Oval-6-Copy-4_1_" gradientUnits="userSpaceOnUse" x1="-437.5651" y1="42.6" x2="-437.7644" y2="44.186" gradientTransform="matrix(42.6204 -2.808049e-05 -5.648078e-05 52.468 18669.7969 -2249.4937)">
							<stop  offset="0" style="stop-color:#4F3CEB"/>
							<stop  offset="1" style="stop-color:#7945B7"/>
						</linearGradient>
						<path id="Oval-6-Copy-4" class="st2" d="M22.5,54.3c11.8,0,21.3-9.4,21.3-21c0-7.7-8.8-18.2-26.5-31.5
							C7.4,14.3,2.1,24.1,1.4,31.1c-0.1,1.7-0.2,2.9-0.1,3.6c0.1,1.1,0.4,2.6,0.5,3C3.8,47.2,12.3,54.3,22.5,54.3z"/>
					</g>
					
						<radialGradient id="Oval-6-Copy_2_" cx="-129.3659" cy="128.4743" r="1.7225" fx="-128.493" fy="129.9594" gradientTransform="matrix(273.7715 0 0 245.1513 35636.9336 -31607.4199)" gradientUnits="userSpaceOnUse">
						<stop  offset="0" style="stop-color:#4F3CEB"/>
						<stop  offset="0.1409" style="stop-color:#563EE2"/>
						<stop  offset="0.6923" style="stop-color:#6F43C3"/>
						<stop  offset="1" style="stop-color:#7945B7"/>
					</radialGradient>
					<path id="Oval-6-Copy" class="st3" d="M148.7,286.5c69.1,0,125.1-54.9,125.1-122.6s-56-122.6-125.1-122.6
						c-64.8,0-118,48.2-124.4,110c-0.2,2-9.8-1.6-10.8-2.1s-0.7,0.2-0.7,0.5c-0.1,1.8,5.7,9.5,3.9,13.2s-25.5,2.4-13.1,7.6
						s15.9,5.5,14.8,8.7s-3.9,14,0,10.6s7.6-2.3,8.1,0C38.6,245.2,88.7,286.5,148.7,286.5z"/>
					<path id="Oval-6-Copy_1_" class="st4" d="M205.2,103.1c-0.2,0.2,68.5,128.5,68.5,60.8s-56-122.6-125.1-122.6
						c-64.8,0-118,48.2-124.4,110C55.6,76.9,123.2,31.5,205.2,103.1z"/>
					<g id="Oval-2" transform="translate(111.130742, 153.503759)">
						<g>
							<path class="st5" d="M21.9,12.3c-3.3,3.4-5.4,8-5.4,13.2s2.1,9.8,5.4,13.2c2.3-3.9,3.7-8.4,3.7-13.2S24.2,16.1,21.9,12.3z"/>
							<g>
								<path class="st6" d="M3.7,50.7c7.7-1.1,14.3-5.6,18.1-12c-3.3-3.4-5.3-8-5.3-13.2c0-5.2,2.1-9.8,5.4-13.2
									C19,7.6,14.6,3.8,9.4,1.8C3.7,16.6,2,34.9,3.7,50.7z"/>
								<path class="st7" d="M0,51c1.3,0,2.5-0.1,3.7-0.3C2,34.9,3.7,16.6,9.4,1.8C6.5,0.6,3.3,0,0,0C0.4,12.1-0.1,39.4,0,51z"/>
							</g>
						</g>
					</g>
					
						<g id="Group" transform="translate(167.311358, 24.759724) scale(-1, 1) rotate(95.000000) translate(-167.311358, -24.759724) translate(145.385563, -2.523170)">
						
							<linearGradient id="Oval-6-Copy-5_1_" gradientUnits="userSpaceOnUse" x1="-39.1609" y1="71.5043" x2="-39.3601" y2="73.0903" gradientTransform="matrix(22.1857 3.8525 -3.9119 21.8491 1159.1257 -1418.3506)">
							<stop  offset="0" style="stop-color:#4F3CEB"/>
							<stop  offset="1" style="stop-color:#7945B7"/>
						</linearGradient>
						<path id="Oval-6-Copy-5" class="st8" d="M11.3,22.2c6.2,0,11.3-5,11.3-11.1S17.5,0,11.3,0C5.4,0,0.7,4.4,0.1,10
							C0,10.9,0,11.5,0,11.9c0.1,0.6,0.2,1.4,0.3,1.6C1.4,18.4,5.9,22.2,11.3,22.2z"/>
						
							<linearGradient id="Oval-6-Copy-6_1_" gradientUnits="userSpaceOnUse" x1="-30.6602" y1="61.6279" x2="-30.8595" y2="63.2139" gradientTransform="matrix(41.973 9.111 -7.4009 51.6709 1764.0558 -2919.5244)">
							<stop  offset="0" style="stop-color:#4F3CEB"/>
							<stop  offset="1" style="stop-color:#7945B7"/>
						</linearGradient>
						<path id="Oval-6-Copy-6" class="st9" d="M22.5,54.3c11.8,0,21.3-9.4,21.3-21c0-7.7-8.8-18.2-26.5-31.5
							C7.4,14.3,2.1,24.1,1.4,31.1c-0.1,1.7-0.2,2.9-0.1,3.6c0.1,1.1,0.4,2.6,0.5,3C3.8,47.2,12.3,54.3,22.5,54.3z"/>
					</g>
				</g>
			</g>
			
				<g id="Group-11" transform="translate(160.847435, 90.689845) rotate(-270.000000) translate(-160.847435, -90.689845) translate(153.939308, 65.205823)">
				
					<ellipse id="Oval-6" transform="matrix(-2.535182e-06 -1 1 -2.535182e-06 4.2034 9.6164)" class="st7" cx="6.9" cy="2.7" rx="2.7" ry="6.9"/>
				
					<ellipse id="Oval-6_1_" transform="matrix(-2.535182e-06 -1 1 -2.535182e-06 -41.3396 55.2165)" class="st7" cx="6.9" cy="48.3" rx="2.7" ry="6.9"/>
			</g>
		</g>
	</g>
</g>
</svg>
